<?xml version="1.0" standalone="no"?>
<!DOCTYPE svg PUBLIC "-//W3C//DTD SVG 20010904//EN"
 "http://www.w3.org/TR/2001/REC-SVG-20010904/DTD/svg10.dtd">
<svg version="1.0" xmlns="http://www.w3.org/2000/svg"
 width="542.000000pt" height="542.000000pt" viewBox="0 0 542.000000 542.000000"
 preserveAspectRatio="xMidYMid meet">
<metadata>
Created by potrace 1.14, written by Peter Selinger 2001-2017
</metadata>
<g transform="translate(0.000000,542.000000) scale(0.100000,-0.100000)"
fill="#000000" stroke="none">
<path d="M2578 5295 c-2 -2 -48 -5 -103 -9 -107 -7 -156 -12 -214 -21 -68 -11
-96 -15 -121 -20 -14 -3 -41 -7 -60 -10 -157 -26 -410 -107 -570 -182 -271
-127 -475 -289 -622 -495 -109 -151 -182 -327 -215 -513 -25 -143 -21 -477 7
-599 45 -200 71 -278 130 -396 41 -81 126 -205 187 -271 40 -44 197 -179 208
-179 4 0 21 -11 38 -24 88 -66 288 -157 473 -216 106 -34 310 -85 374 -94 8
-1 31 -5 50 -9 51 -10 89 -16 140 -22 25 -3 74 -10 110 -15 36 -5 90 -12 120
-15 30 -3 71 -8 90 -10 19 -2 63 -7 97 -11 35 -3 73 -7 85 -9 13 -2 48 -6 78
-10 136 -17 308 -68 413 -123 91 -47 156 -108 192 -179 26 -50 30 -69 29 -133
-1 -63 -6 -84 -31 -135 -99 -192 -366 -297 -756 -298 -185 0 -301 12 -528 52
-116 20 -297 89 -422 160 -56 31 -190 126 -230 162 -36 33 -121 72 -161 74
-92 6 -199 -61 -371 -232 -148 -147 -348 -364 -484 -526 -14 -17 -7 -26 104
-134 66 -63 136 -127 155 -142 19 -14 41 -32 49 -39 7 -7 48 -39 90 -70 302
-229 601 -361 986 -437 163 -32 198 -37 365 -52 101 -10 623 -10 735 0 88 7
115 10 205 23 25 3 54 8 66 9 11 2 45 8 75 14 30 6 63 13 74 15 202 40 479
136 640 221 192 103 374 243 498 384 104 118 214 316 261 466 22 70 31 109 51
214 10 52 19 171 19 251 0 143 -9 221 -50 418 -10 50 -77 221 -111 282 -90
164 -234 332 -385 449 -126 98 -310 199 -490 272 -90 36 -330 113 -381 123
-12 2 -53 12 -92 21 -116 27 -252 51 -330 59 -27 3 -66 8 -85 10 -19 3 -75 10
-125 16 -49 6 -110 13 -135 16 -25 3 -70 9 -100 14 -30 5 -73 12 -95 15 -22 3
-73 14 -112 25 -220 60 -328 168 -337 337 -6 137 64 242 207 308 140 65 234
80 492 80 393 0 581 -38 864 -177 201 -98 238 -98 349 -4 47 40 165 170 239
262 96 120 247 310 306 385 l67 87 -53 39 c-250 189 -553 345 -822 420 -160
45 -220 59 -370 82 -214 34 -328 43 -562 46 -106 1 -194 1 -195 0z"/>
</g>
</svg>
